Format : AVI
Format/Info : Audio Video Interleave
File size : 699 MiB
Duration : 1h 33mn
Overall bit rate : 1 048 Kbps
Writing application : VirtualDubMod 1.5.4.1 (build 2178/release)
Writing library : VirtualDubMod build 2178/release

Video
ID : 0
Format : MPEG-4 Visual
Format settings, BVOP : Yes
Format settings, QPel : No
Format settings, GMC : No warppoints
Format settings, Matrix : Default (H.263)
Muxing mode : Packed bitstream
Codec ID : DX50
Codec ID/Hint : DivX 5
Duration : 1h 33mn
Bit rate : 913 Kbps
Width : 720 pixels
Height : 304 pixels
Display aspect ratio : 2.35:1
Frame rate : 25.000 fps
Resolution : 24 bits
Colorimetry : 4:2:0
Scan type : Progressive
Bits/(Pixel*Frame) : 0.167
Stream size : 609 MiB (87%)
Writing library : DivX 6.8.4

Audio
ID : 1
Format : MPEG Audio
Format version : Version 1
Format profile : Layer 3
Codec ID : 55
Codec ID/Hint : MP3
Duration : 1h 33mn
Bit rate mode : Constant
Bit rate : 128 Kbps
Channel(s) : 2 channels
Sampling rate : 48.0 KHz
Resolution : 16 bits
Stream size : 85.4 MiB (12%)
Alignment : Aligned on interleaves
Interleave, duration : 80 ms (2.00 video frames)
Interleave, preload duration : 504 ms
Writing library : LAME3.98r
Encoding settings : -m j -V 4 -q 2 -lowpass 17 -b 128
Language : English

# Starring:-> Mickey Rourke, Jason Statham, 50 Cent, Sam Riley, Ray Winstone, Michael Shannon, Ben Gazzara, Emmanuelle Chriqui, Natasha Lyonne

A remake of the French-language film 13 Tzameti, 13 centers on Vince (Sam Riley), a young man, who has decided to follow instructions intended for someone else without knowing where they will take him. Something else he does not know is that Larry Mullane (David Zayas), a cop on a knife-edige, is tailing him. When he reaches his destination Vince falls into a degenerate, clandestine world of mental chaos behind closed doors in which men gamble on the lives of other men.
 
http://www.imdb.com/title/tt0798817

screens
 
http://img401.imageshack.us/img401/8933/13divxviceavisnapshot00.jpg 
http://img530.imageshack.us/img530/8933/13divxviceavisnapshot00.jpg 
http://img21.imageshack.us/img21/8933/13divxviceavisnapshot00.jpg 
http://img249.imageshack.us/img249/8933/13divxviceavisnapshot00.jpg